ffmpeg started on 2026-01-13 at 10:12:21
Report written to "D:\Convert\FFMetrics\reports\ssim_report-6.txt"
Log level: 32
Command line:
ffmpeg -hide_banner -nostdin -r 24000/1001 -i "F:\\Convert\\files\\[DC] Make Heroine ga Oosugiru - 07_Telegram_HEVC(112).mkv" -r 24000/1001 -i "F:\\Convert\\files\\[DC] Make Heroine ga Oosugiru - 07_Telegram.mp4" -lavfi "[0:v]settb=AVTB,setpts=PTS-STARTPTS,format=pix_fmts=yuv420p10le,fps=24000/1001,scale=1920:1080:flags=lanczos:param0=3:out_range=limited:out_color_matrix=bt709:out_chroma_loc=left,setsar=1/1,setdar=(1920/1080)*(1/1),colorspace=format=yuv420p10:range=tv:primaries=bt709:trc=bt709:space=bt709:fast=0[main];[1:v]settb=AVTB,setpts=PTS-STARTPTS,format=pix_fmts=yuv420p,fps=24000/1001,scale=1920:1080:flags=lanczos:param0=3:out_range=limited:out_color_matrix=bt709:out_chroma_loc=left,setsar=1.000,setdar=1.778,colorspace=format=yuv420p:range=tv:primaries=bt709:trc=bt709:space=bt709:fast=0[ref];[main][ref]ssim=eof_action=endall:stats_file='D\\:/Convert/FFMetrics/logs/ssim_logfile-6.txt'" -f null -
Input #0, matroska,webm, from 'F:\Convert\files\[DC] Make Heroine ga Oosugiru - 07_Telegram_HEVC(112).mkv':
  Metadata:
    COMPATIBLE_BRANDS: isomiso2avc1mp41
    MAJOR_BRAND     : isom
    MINOR_VERSION   : 512
    ENCODER         : Lavf61.7.100
  Duration: 00:24:06.79, start: -0.021000, bitrate: 993 kb/s
  Stream #0:0: Video: hevc (Main 10), yuv420p10le(tv, bt709, progressive), 1920x1080 [SAR 1:1 DAR 16:9], 23.98 fps, 23.98 tbr, 1k tbn (default)
      Metadata:
        HANDLER_NAME    : VideoHandler
        VENDOR_ID       : [0][0][0][0]
        ENCODER         : Lavc61.19.100 libx265
        BPS             : 796449
        DURATION        : 00:24:06.569708333
        NUMBER_OF_FRAMES: 34683
        NUMBER_OF_BYTES : 144014826
        _STATISTICS_WRITING_APP: mkvpropedit v94.0 ('Initiate') 64-bit
        _STATISTICS_WRITING_DATE_UTC: 2026-01-12 14:08:01
        _STATISTICS_TAGS: BPS DURATION NUMBER_OF_FRAMES NUMBER_OF_BYTES
  Stream #0:1: Audio: aac (LC), 48000 Hz, stereo, fltp (default)
      Metadata:
        HANDLER_NAME    : SoundHandler
        VENDOR_ID       : [0][0][0][0]
        ENCODER         : Lavc61.19.100 aac
        BPS             : 193194
        DURATION        : 00:24:06.784000000
        NUMBER_OF_FRAMES: 67819
        NUMBER_OF_BYTES : 34938755
        _STATISTICS_WRITING_APP: mkvpropedit v94.0 ('Initiate') 64-bit
        _STATISTICS_WRITING_DATE_UTC: 2026-01-12 14:08:01
        _STATISTICS_TAGS: BPS DURATION NUMBER_OF_FRAMES NUMBER_OF_BYTES
Input #1, mov,mp4,m4a,3gp,3g2,mj2, from 'F:\Convert\files\[DC] Make Heroine ga Oosugiru - 07_Telegram.mp4':
  Metadata:
    major_brand     : isom
    minor_version   : 512
    compatible_brands: isomiso2avc1mp41
    encoder         : Lavf60.16.100
  Duration: 00:24:06.74, start: 0.000000, bitrate: 3764 kb/s
  Stream #1:0[0x1](und): Video: h264 (High) (avc1 / 0x31637661), yuv420p(tv, bt709, progressive), 1920x1080 [SAR 1:1 DAR 16:9], 3616 kb/s, 23.98 fps, 23.98 tbr, 24k tbn (default)
      Metadata:
        handler_name    : VideoHandler
        vendor_id       : [0][0][0][0]
        encoder         : Lavc60.31.102 h264_qsv
  Stream #1:1[0x2](und): Audio: aac (HE-AACv2) (mp4a / 0x6134706D), 48000 Hz, stereo, fltp, 144 kb/s (default)
      Metadata:
        handler_name    : SoundHandler
        vendor_id       : [0][0][0][0]
Stream mapping:
  Stream #0:0 (hevc) -> settb:default
  Stream #1:0 (h264) -> settb:default
  ssim:default -> Stream #0:0 (wrapped_avframe)
  Stream #0:1 -> #0:1 (aac (native) -> pcm_s16le (native))
Output #0, null, to 'pipe:':
  Metadata:
    COMPATIBLE_BRANDS: isomiso2avc1mp41
    MAJOR_BRAND     : isom
    MINOR_VERSION   : 512
    encoder         : Lavf61.7.100
  Stream #0:0: Video: wrapped_avframe, yuv420p10le(tv, bt709, progressive), 1920x1080 [SAR 1:1 DAR 16:9], q=2-31, 200 kb/s, 23.98 fps, 23.98 tbn
      Metadata:
        encoder         : Lavc61.19.100 wrapped_avframe
  Stream #0:1: Audio: pcm_s16le, 48000 Hz, stereo, s16, 1536 kb/s (default)
      Metadata:
        HANDLER_NAME    : SoundHandler
        VENDOR_ID       : [0][0][0][0]
        _STATISTICS_TAGS: BPS DURATION NUMBER_OF_FRAMES NUMBER_OF_BYTES
        BPS             : 193194
        DURATION        : 00:24:06.784000000
        NUMBER_OF_FRAMES: 67819
        NUMBER_OF_BYTES : 34938755
        _STATISTICS_WRITING_APP: mkvpropedit v94.0 ('Initiate') 64-bit
        _STATISTICS_WRITING_DATE_UTC: 2026-01-12 14:08:01
        encoder         : Lavc61.19.100 pcm_s16le
frame=  110 fps=0.0 q=-0.0 size=N/A time=00:00:04.58 bitrate=N/A speed=9.07x    frame=  276 fps=267 q=-0.0 size=N/A time=00:00:11.51 bitrate=N/A speed=11.1x    frame=  454 fps=293 q=-0.0 size=N/A time=00:00:18.93 bitrate=N/A speed=12.2x    frame=  627 fps=305 q=-0.0 size=N/A time=00:00:26.15 bitrate=N/A speed=12.7x    frame=  792 fps=308 q=-0.0 size=N/A time=00:00:33.03 bitrate=N/A speed=12.9x    frame=  943 fps=304 q=-0.0 size=N/A time=00:00:39.33 bitrate=N/A speed=12.7x    frame= 1096 fps=302 q=-0.0 size=N/A time=00:00:45.71 bitrate=N/A speed=12.6x    frame= 1246 fps=302 q=-0.0 size=N/A time=00:00:51.96 bitrate=N/A speed=12.6x    frame= 1412 fps=303 q=-0.0 size=N/A time=00:00:58.89 bitrate=N/A speed=12.6x    frame= 1543 fps=299 q=-0.0 size=N/A time=00:01:04.35 bitrate=N/A speed=12.5x    frame= 1680 fps=295 q=-0.0 size=N/A time=00:01:10.07 bitrate=N/A speed=12.3x    frame= 1850 fps=298 q=-0.0 size=N/A time=00:01:17.16 bitrate=N/A speed=12.4x    frame= 2012 fps=300 q=-0.0 size=N/A time=00:01:23.91 bitrate=N/A speed=12.5x    frame= 2118 fps=293 q=-0.0 size=N/A time=00:01:28.33 bitrate=N/A speed=12.2x    frame= 2246 fps=290 q=-0.0 size=N/A time=00:01:33.67 bitrate=N/A speed=12.1x    frame= 2365 fps=286 q=-0.0 size=N/A time=00:01:38.64 bitrate=N/A speed=11.9x    frame= 2493 fps=284 q=-0.0 size=N/A time=00:01:43.97 bitrate=N/A speed=11.9x    frame= 2654 fps=286 q=-0.0 size=N/A time=00:01:50.69 bitrate=N/A speed=11.9x    frame= 2823 fps=288 q=-0.0 size=N/A time=00:01:57.74 bitrate=N/A speed=  12x    frame= 2981 fps=289 q=-0.0 size=N/A time=00:02:04.33 bitrate=N/A speed=12.1x    frame= 3171 fps=292 q=-0.0 size=N/A time=00:02:12.25 bitrate=N/A speed=12.2x    frame= 3361 fps=296 q=-0.0 size=N/A time=00:02:20.18 bitrate=N/A speed=12.3x    frame= 3525 fps=297 q=-0.0 size=N/A time=00:02:27.02 bitrate=N/A speed=12.4x    frame= 3710 fps=300 q=-0.0 size=N/A time=00:02:34.73 bitrate=N/A speed=12.5x    frame= 3889 fps=301 q=-0.0 size=N/A time=00:02:42.20 bitrate=N/A speed=12.6x    frame= 4064 fps=303 q=-0.0 size=N/A time=00:02:49.50 bitrate=N/A speed=12.6x    frame= 4228 fps=304 q=-0.0 size=N/A time=00:02:56.34 bitrate=N/A speed=12.7x    frame= 4406 fps=305 q=-0.0 size=N/A time=00:03:03.76 bitrate=N/A speed=12.7x    frame= 4570 fps=305 q=-0.0 size=N/A time=00:03:10.60 bitrate=N/A speed=12.7x    frame= 4734 fps=306 q=-0.0 size=N/A time=00:03:17.44 bitrate=N/A speed=12.8x    frame= 4910 fps=307 q=-0.0 size=N/A time=00:03:24.78 bitrate=N/A speed=12.8x    frame= 5087 fps=308 q=-0.0 size=N/A time=00:03:32.17 bitrate=N/A speed=12.9x    frame= 5274 fps=310 q=-0.0 size=N/A time=00:03:39.96 bitrate=N/A speed=12.9x    frame= 5457 fps=311 q=-0.0 size=N/A time=00:03:47.60 bitrate=N/A speed=  13x    frame= 5642 fps=313 q=-0.0 size=N/A time=00:03:55.31 bitrate=N/A speed=  13x    frame= 5808 fps=313 q=-0.0 size=N/A time=00:04:02.24 bitrate=N/A speed=  13x    frame= 5960 fps=312 q=-0.0 size=N/A time=00:04:08.58 bitrate=N/A speed=  13x    frame= 6122 fps=312 q=-0.0 size=N/A time=00:04:15.33 bitrate=N/A speed=  13x    frame= 6287 fps=312 q=-0.0 size=N/A time=00:04:22.22 bitrate=N/A speed=  13x    frame= 6457 fps=313 q=-0.0 size=N/A time=00:04:29.31 bitrate=N/A speed=13.1x    frame= 6633 fps=314 q=-0.0 size=N/A time=00:04:36.65 bitrate=N/A speed=13.1x    frame= 6804 fps=314 q=-0.0 size=N/A time=00:04:43.78 bitrate=N/A speed=13.1x    frame= 6965 fps=314 q=-0.0 size=N/A time=00:04:50.49 bitrate=N/A speed=13.1x    frame= 7130 fps=314 q=-0.0 size=N/A time=00:04:57.38 bitrate=N/A speed=13.1x    frame= 7320 fps=315 q=-0.0 size=N/A time=00:05:05.30 bitrate=N/A speed=13.1x    frame= 7499 fps=316 q=-0.0 size=N/A time=00:05:12.77 bitrate=N/A speed=13.2x    frame= 7682 fps=317 q=-0.0 size=N/A time=00:05:20.40 bitrate=N/A speed=13.2x    frame= 7869 fps=318 q=-0.0 size=N/A time=00:05:28.20 bitrate=N/A speed=13.3x    frame= 8055 fps=319 q=-0.0 size=N/A time=00:05:35.96 bitrate=N/A speed=13.3x    frame= 8215 fps=319 q=-0.0 size=N/A time=00:05:42.63 bitrate=N/A speed=13.3x    frame= 8380 fps=318 q=-0.0 size=N/A time=00:05:49.51 bitrate=N/A speed=13.3x    frame= 8553 fps=319 q=-0.0 size=N/A time=00:05:56.73 bitrate=N/A speed=13.3x    frame= 8736 fps=320 q=-0.0 size=N/A time=00:06:04.36 bitrate=N/A speed=13.3x    frame= 8914 fps=320 q=-0.0 size=N/A time=00:06:11.78 bitrate=N/A speed=13.4x    frame= 9101 fps=321 q=-0.0 size=N/A time=00:06:19.58 bitrate=N/A speed=13.4x    frame= 9281 fps=321 q=-0.0 size=N/A time=00:06:27.09 bitrate=N/A speed=13.4x    frame= 9461 fps=322 q=-0.0 size=N/A time=00:06:34.60 bitrate=N/A speed=13.4x    frame= 9649 fps=322 q=-0.0 size=N/A time=00:06:42.44 bitrate=N/A speed=13.4x    frame= 9828 fps=323 q=-0.0 size=N/A time=00:06:49.90 bitrate=N/A speed=13.5x    frame=10020 fps=324 q=-0.0 size=N/A time=00:06:57.91 bitrate=N/A speed=13.5x    frame=10196 fps=324 q=-0.0 size=N/A time=00:07:05.25 bitrate=N/A speed=13.5x    frame=10373 fps=324 q=-0.0 size=N/A time=00:07:12.64 bitrate=N/A speed=13.5x    frame=10544 fps=324 q=-0.0 size=N/A time=00:07:19.77 bitrate=N/A speed=13.5x    frame=10706 fps=324 q=-0.0 size=N/A time=00:07:26.52 bitrate=N/A speed=13.5x    frame=10884 fps=325 q=-0.0 size=N/A time=00:07:33.95 bitrate=N/A speed=13.5x    frame=11054 fps=324 q=-0.0 size=N/A time=00:07:41.04 bitrate=N/A speed=13.5x    frame=11226 fps=325 q=-0.0 size=N/A time=00:07:48.21 bitrate=N/A speed=13.5x    frame=11390 fps=325 q=-0.0 size=N/A time=00:07:55.05 bitrate=N/A speed=13.5x    frame=11564 fps=325 q=-0.0 size=N/A time=00:08:02.31 bitrate=N/A speed=13.5x    frame=11747 fps=325 q=-0.0 size=N/A time=00:08:09.94 bitrate=N/A speed=13.6x    frame=11928 fps=326 q=-0.0 size=N/A time=00:08:17.49 bitrate=N/A speed=13.6x    frame=12097 fps=326 q=-0.0 size=N/A time=00:08:24.54 bitrate=N/A speed=13.6x    frame=12259 fps=325 q=-0.0 size=N/A time=00:08:31.30 bitrate=N/A speed=13.6x    frame=12431 fps=326 q=-0.0 size=N/A time=00:08:38.47 bitrate=N/A speed=13.6x    frame=12594 fps=325 q=-0.0 size=N/A time=00:08:45.27 bitrate=N/A speed=13.6x    frame=12776 fps=326 q=-0.0 size=N/A time=00:08:52.86 bitrate=N/A speed=13.6x    frame=12946 fps=326 q=-0.0 size=N/A time=00:08:59.95 bitrate=N/A speed=13.6x    frame=13092 fps=325 q=-0.0 size=N/A time=00:09:06.04 bitrate=N/A speed=13.6x    frame=13265 fps=325 q=-0.0 size=N/A time=00:09:13.26 bitrate=N/A speed=13.6x    frame=13440 fps=326 q=-0.0 size=N/A time=00:09:20.56 bitrate=N/A speed=13.6x    frame=13622 fps=326 q=-0.0 size=N/A time=00:09:28.15 bitrate=N/A speed=13.6x    frame=13811 fps=326 q=-0.0 size=N/A time=00:09:36.03 bitrate=N/A speed=13.6x    frame=13982 fps=327 q=-0.0 size=N/A time=00:09:43.16 bitrate=N/A speed=13.6x    frame=14121 fps=326 q=-0.0 size=N/A time=00:09:48.96 bitrate=N/A speed=13.6x    frame=14270 fps=325 q=-0.0 size=N/A time=00:09:55.17 bitrate=N/A speed=13.6x    frame=14430 fps=325 q=-0.0 size=N/A time=00:10:01.85 bitrate=N/A speed=13.6x    frame=14595 fps=325 q=-0.0 size=N/A time=00:10:08.73 bitrate=N/A speed=13.6x    frame=14745 fps=325 q=-0.0 size=N/A time=00:10:14.98 bitrate=N/A speed=13.5x    frame=14899 fps=324 q=-0.0 size=N/A time=00:10:21.41 bitrate=N/A speed=13.5x    frame=15064 fps=324 q=-0.0 size=N/A time=00:10:28.29 bitrate=N/A speed=13.5x    frame=15193 fps=324 q=-0.0 size=N/A time=00:10:33.67 bitrate=N/A speed=13.5x    frame=15365 fps=324 q=-0.0 size=N/A time=00:10:40.84 bitrate=N/A speed=13.5x    frame=15538 fps=324 q=-0.0 size=N/A time=00:10:48.06 bitrate=N/A speed=13.5x    frame=15720 fps=324 q=-0.0 size=N/A time=00:10:55.65 bitrate=N/A speed=13.5x    frame=15898 fps=324 q=-0.0 size=N/A time=00:11:03.07 bitrate=N/A speed=13.5x    frame=16070 fps=324 q=-0.0 size=N/A time=00:11:10.25 bitrate=N/A speed=13.5x    frame=16243 fps=325 q=-0.0 size=N/A time=00:11:17.46 bitrate=N/A speed=13.5x    frame=16417 fps=325 q=-0.0 size=N/A time=00:11:24.72 bitrate=N/A speed=13.5x    frame=16576 fps=325 q=-0.0 size=N/A time=00:11:31.35 bitrate=N/A speed=13.5x    frame=16740 fps=325 q=-0.0 size=N/A time=00:11:38.19 bitrate=N/A speed=13.5x    frame=16914 fps=325 q=-0.0 size=N/A time=00:11:45.45 bitrate=N/A speed=13.5x    frame=17071 fps=324 q=-0.0 size=N/A time=00:11:52.00 bitrate=N/A speed=13.5x    frame=17231 fps=324 q=-0.0 size=N/A time=00:11:58.67 bitrate=N/A speed=13.5x    frame=17381 fps=324 q=-0.0 size=N/A time=00:12:04.93 bitrate=N/A speed=13.5x    frame=17512 fps=323 q=-0.0 size=N/A time=00:12:10.39 bitrate=N/A speed=13.5x    frame=17666 fps=323 q=-0.0 size=N/A time=00:12:16.81 bitrate=N/A speed=13.5x    frame=17834 fps=323 q=-0.0 size=N/A time=00:12:23.82 bitrate=N/A speed=13.5x    frame=18008 fps=323 q=-0.0 size=N/A time=00:12:31.08 bitrate=N/A speed=13.5x    frame=18182 fps=323 q=-0.0 size=N/A time=00:12:38.34 bitrate=N/A speed=13.5x    frame=18352 fps=323 q=-0.0 size=N/A time=00:12:45.43 bitrate=N/A speed=13.5x    frame=18519 fps=323 q=-0.0 size=N/A time=00:12:52.39 bitrate=N/A speed=13.5x    frame=18705 fps=324 q=-0.0 size=N/A time=00:13:00.15 bitrate=N/A speed=13.5x    frame=18883 fps=324 q=-0.0 size=N/A time=00:13:07.57 bitrate=N/A speed=13.5x    frame=19053 fps=324 q=-0.0 size=N/A time=00:13:14.66 bitrate=N/A speed=13.5x    frame=19225 fps=324 q=-0.0 size=N/A time=00:13:21.84 bitrate=N/A speed=13.5x    frame=19386 fps=324 q=-0.0 size=N/A time=00:13:28.55 bitrate=N/A speed=13.5x    frame=19546 fps=324 q=-0.0 size=N/A time=00:13:35.23 bitrate=N/A speed=13.5x    frame=19703 fps=323 q=-0.0 size=N/A time=00:13:41.77 bitrate=N/A speed=13.5x    frame=19858 fps=323 q=-0.0 size=N/A time=00:13:48.24 bitrate=N/A speed=13.5x    frame=20005 fps=323 q=-0.0 size=N/A time=00:13:54.37 bitrate=N/A speed=13.5x    frame=20152 fps=323 q=-0.0 size=N/A time=00:14:00.50 bitrate=N/A speed=13.5x    frame=20322 fps=323 q=-0.0 size=N/A time=00:14:07.59 bitrate=N/A speed=13.5x    frame=20476 fps=323 q=-0.0 size=N/A time=00:14:14.01 bitrate=N/A speed=13.5x    frame=20628 fps=322 q=-0.0 size=N/A time=00:14:20.35 bitrate=N/A speed=13.4x    frame=20799 fps=322 q=-0.0 size=N/A time=00:14:27.49 bitrate=N/A speed=13.4x    frame=20938 fps=322 q=-0.0 size=N/A time=00:14:33.28 bitrate=N/A speed=13.4x    frame=21096 fps=322 q=-0.0 size=N/A time=00:14:39.87 bitrate=N/A speed=13.4x    frame=21266 fps=322 q=-0.0 size=N/A time=00:14:46.96 bitrate=N/A speed=13.4x    frame=21419 fps=322 q=-0.0 size=N/A time=00:14:53.35 bitrate=N/A speed=13.4x    frame=21565 fps=321 q=-0.0 size=N/A time=00:14:59.44 bitrate=N/A speed=13.4x    frame=21746 fps=322 q=-0.0 size=N/A time=00:15:06.98 bitrate=N/A speed=13.4x    frame=21876 fps=321 q=-0.0 size=N/A time=00:15:12.41 bitrate=N/A speed=13.4x    frame=22041 fps=321 q=-0.0 size=N/A time=00:15:19.29 bitrate=N/A speed=13.4x    frame=22203 fps=321 q=-0.0 size=N/A time=00:15:26.05 bitrate=N/A speed=13.4x    frame=22339 fps=321 q=-0.0 size=N/A time=00:15:31.72 bitrate=N/A speed=13.4x    frame=22496 fps=321 q=-0.0 size=N/A time=00:15:38.27 bitrate=N/A speed=13.4x    frame=22664 fps=321 q=-0.0 size=N/A time=00:15:45.27 bitrate=N/A speed=13.4x    frame=22824 fps=321 q=-0.0 size=N/A time=00:15:51.95 bitrate=N/A speed=13.4x    frame=22979 fps=320 q=-0.0 size=N/A time=00:15:58.41 bitrate=N/A speed=13.4x    frame=23133 fps=320 q=-0.0 size=N/A time=00:16:04.83 bitrate=N/A speed=13.4x    frame=23284 fps=320 q=-0.0 size=N/A time=00:16:11.13 bitrate=N/A speed=13.3x    frame=23447 fps=320 q=-0.0 size=N/A time=00:16:17.93 bitrate=N/A speed=13.3x    frame=23591 fps=320 q=-0.0 size=N/A time=00:16:23.94 bitrate=N/A speed=13.3x    frame=23755 fps=320 q=-0.0 size=N/A time=00:16:30.78 bitrate=N/A speed=13.3x    frame=23890 fps=319 q=-0.0 size=N/A time=00:16:36.41 bitrate=N/A speed=13.3x    frame=24046 fps=319 q=-0.0 size=N/A time=00:16:42.91 bitrate=N/A speed=13.3x    frame=24195 fps=319 q=-0.0 size=N/A time=00:16:49.13 bitrate=N/A speed=13.3x    frame=24369 fps=319 q=-0.0 size=N/A time=00:16:56.39 bitrate=N/A speed=13.3x    frame=24526 fps=319 q=-0.0 size=N/A time=00:17:02.93 bitrate=N/A speed=13.3x    frame=24683 fps=319 q=-0.0 size=N/A time=00:17:09.48 bitrate=N/A speed=13.3x    frame=24851 fps=319 q=-0.0 size=N/A time=00:17:16.49 bitrate=N/A speed=13.3x    frame=25015 fps=319 q=-0.0 size=N/A time=00:17:23.33 bitrate=N/A speed=13.3x    frame=25132 fps=318 q=-0.0 size=N/A time=00:17:28.21 bitrate=N/A speed=13.3x    frame=25314 fps=319 q=-0.0 size=N/A time=00:17:35.80 bitrate=N/A speed=13.3x    frame=25468 fps=318 q=-0.0 size=N/A time=00:17:42.22 bitrate=N/A speed=13.3x    frame=25635 fps=318 q=-0.0 size=N/A time=00:17:49.19 bitrate=N/A speed=13.3x    frame=25786 fps=318 q=-0.0 size=N/A time=00:17:55.49 bitrate=N/A speed=13.3x    frame=25960 fps=318 q=-0.0 size=N/A time=00:18:02.74 bitrate=N/A speed=13.3x    frame=26122 fps=318 q=-0.0 size=N/A time=00:18:09.50 bitrate=N/A speed=13.3x    frame=26287 fps=318 q=-0.0 size=N/A time=00:18:16.38 bitrate=N/A speed=13.3x    frame=26455 fps=318 q=-0.0 size=N/A time=00:18:23.39 bitrate=N/A speed=13.3x    frame=26637 fps=319 q=-0.0 size=N/A time=00:18:30.98 bitrate=N/A speed=13.3x    frame=26799 fps=319 q=-0.0 size=N/A time=00:18:37.74 bitrate=N/A speed=13.3x    frame=26974 fps=319 q=-0.0 size=N/A time=00:18:45.04 bitrate=N/A speed=13.3x    frame=27118 fps=318 q=-0.0 size=N/A time=00:18:51.04 bitrate=N/A speed=13.3x    frame=27248 fps=318 q=-0.0 size=N/A time=00:18:56.46 bitrate=N/A speed=13.3x    frame=27386 fps=318 q=-0.0 size=N/A time=00:19:02.22 bitrate=N/A speed=13.3x    frame=27547 fps=318 q=-0.0 size=N/A time=00:19:08.93 bitrate=N/A speed=13.3x    frame=27725 fps=318 q=-0.0 size=N/A time=00:19:16.36 bitrate=N/A speed=13.3x    frame=27892 fps=318 q=-0.0 size=N/A time=00:19:23.32 bitrate=N/A speed=13.3x    frame=28065 fps=318 q=-0.0 size=N/A time=00:19:30.54 bitrate=N/A speed=13.3x    frame=28249 fps=318 q=-0.0 size=N/A time=00:19:38.21 bitrate=N/A speed=13.3x    frame=28426 fps=318 q=-0.0 size=N/A time=00:19:45.60 bitrate=N/A speed=13.3x    frame=28614 fps=319 q=-0.0 size=N/A time=00:19:53.44 bitrate=N/A speed=13.3x    frame=28789 fps=319 q=-0.0 size=N/A time=00:20:00.74 bitrate=N/A speed=13.3x    frame=28944 fps=319 q=-0.0 size=N/A time=00:20:07.20 bitrate=N/A speed=13.3x    frame=29093 fps=319 q=-0.0 size=N/A time=00:20:13.42 bitrate=N/A speed=13.3x    frame=29251 fps=318 q=-0.0 size=N/A time=00:20:20.01 bitrate=N/A speed=13.3x    frame=29415 fps=318 q=-0.0 size=N/A time=00:20:26.85 bitrate=N/A speed=13.3x    frame=29543 fps=318 q=-0.0 size=N/A time=00:20:32.18 bitrate=N/A speed=13.3x    frame=29724 fps=318 q=-0.0 size=N/A time=00:20:39.73 bitrate=N/A speed=13.3x    frame=29889 fps=318 q=-0.0 size=N/A time=00:20:46.62 bitrate=N/A speed=13.3x    frame=30041 fps=318 q=-0.0 size=N/A time=00:20:52.96 bitrate=N/A speed=13.3x    frame=30224 fps=318 q=-0.0 size=N/A time=00:21:00.59 bitrate=N/A speed=13.3x    frame=30399 fps=318 q=-0.0 size=N/A time=00:21:07.89 bitrate=N/A speed=13.3x    frame=30575 fps=319 q=-0.0 size=N/A time=00:21:15.23 bitrate=N/A speed=13.3x    frame=30751 fps=319 q=-0.0 size=N/A time=00:21:22.57 bitrate=N/A speed=13.3x    frame=30920 fps=319 q=-0.0 size=N/A time=00:21:29.62 bitrate=N/A speed=13.3x    frame=31104 fps=319 q=-0.0 size=N/A time=00:21:37.29 bitrate=N/A speed=13.3x    frame=31285 fps=319 q=-0.0 size=N/A time=00:21:44.84 bitrate=N/A speed=13.3x    frame=31467 fps=319 q=-0.0 size=N/A time=00:21:52.43 bitrate=N/A speed=13.3x    frame=31656 fps=319 q=-0.0 size=N/A time=00:22:00.31 bitrate=N/A speed=13.3x    frame=31833 fps=320 q=-0.0 size=N/A time=00:22:07.70 bitrate=N/A speed=13.3x    frame=31990 fps=319 q=-0.0 size=N/A time=00:22:14.24 bitrate=N/A speed=13.3x    frame=32168 fps=320 q=-0.0 size=N/A time=00:22:21.67 bitrate=N/A speed=13.3x    frame=32356 fps=320 q=-0.0 size=N/A time=00:22:29.51 bitrate=N/A speed=13.3x    frame=32538 fps=320 q=-0.0 size=N/A time=00:22:37.10 bitrate=N/A speed=13.3x    frame=32694 fps=320 q=-0.0 size=N/A time=00:22:43.61 bitrate=N/A speed=13.3x    frame=32845 fps=320 q=-0.0 size=N/A time=00:22:49.91 bitrate=N/A speed=13.3x    frame=33029 fps=320 q=-0.0 size=N/A time=00:22:57.58 bitrate=N/A speed=13.3x    frame=33193 fps=320 q=-0.0 size=N/A time=00:23:04.42 bitrate=N/A speed=13.3x    frame=33363 fps=320 q=-0.0 size=N/A time=00:23:11.51 bitrate=N/A speed=13.3x    frame=33519 fps=320 q=-0.0 size=N/A time=00:23:18.02 bitrate=N/A speed=13.3x    frame=33658 fps=320 q=-0.0 size=N/A time=00:23:23.81 bitrate=N/A speed=13.3x    frame=33776 fps=319 q=-0.0 size=N/A time=00:23:28.74 bitrate=N/A speed=13.3x    frame=33891 fps=319 q=-0.0 size=N/A time=00:23:33.53 bitrate=N/A speed=13.3x    frame=34027 fps=319 q=-0.0 size=N/A time=00:23:39.20 bitrate=N/A speed=13.3x    frame=34172 fps=318 q=-0.0 size=N/A time=00:23:45.25 bitrate=N/A speed=13.3x    frame=34308 fps=318 q=-0.0 size=N/A time=00:23:50.92 bitrate=N/A speed=13.3x    frame=34426 fps=318 q=-0.0 size=N/A time=00:23:55.85 bitrate=N/A speed=13.2x    frame=34597 fps=318 q=-0.0 size=N/A time=00:24:02.98 bitrate=N/A speed=13.3x    [Parsed_ssim_16 @ 0000027d0c9fdc40] SSIM Y:0.994164 (22.338557) U:0.993975 (22.200477) V:0.993582 (21.925946) All:0.994035 (22.244068)
[out#0/null @ 0000027d000a8a00] video:14903KiB audio:271276KiB subtitle:0KiB other streams:0KiB global headers:0KiB muxing overhead: unknown
frame=34683 fps=318 q=-0.0 Lsize=N/A time=00:24:06.57 bitrate=N/A speed=13.3x    
